<svg width="1280" height="720" viewBox="0 0 1280 720" fill="none" xmlns="http://www.w3.org/2000/svg">
<rect width="1280" height="720" fill="white"/>
<rect x="32" width="1248" height="720" fill="#D0EFF9"/>
<g filter="url(#filter0_d)">
<rect x="1013" y="614" width="192.857" height="50" rx="10" fill="#54C6EB"/>
</g>
<text fill="white" xml:space="preserve" style="white-space: pre" font-family="Montserrat" font-size="24" letter-spacing="0em"><tspan x="1075" y="646.604">Opciones</tspan></text>
<path d="M1059.53 637.123C1059.29 636.971 1057.4 635.838 1056.65 635.494L1055.71 633.244C1055.99 632.5 1056.52 630.414 1056.6 630.052C1056.68 629.716 1056.58 629.365 1056.34 629.122L1054.88 627.665C1054.63 627.422 1054.28 627.32 1053.95 627.397C1053.67 627.46 1051.53 627.997 1050.76 628.286L1048.51 627.354C1048.18 626.634 1047.08 624.787 1046.88 624.468C1046.69 624.177 1046.37 624 1046.03 624H1043.97C1043.63 624 1043.31 624.177 1043.12 624.468C1042.97 624.71 1041.84 626.602 1041.49 627.354L1039.24 628.286C1038.5 628.009 1036.41 627.48 1036.05 627.397C1035.72 627.321 1035.37 627.422 1035.12 627.665L1033.66 629.122C1033.42 629.365 1033.32 629.716 1033.4 630.052C1033.46 630.326 1034 632.467 1034.29 633.244L1033.35 635.494C1032.63 635.823 1030.79 636.923 1030.47 637.123C1030.18 637.306 1030 637.626 1030 637.97V640.03C1030 640.374 1030.18 640.694 1030.47 640.877C1030.71 641.029 1032.6 642.162 1033.35 642.506L1034.29 644.756C1034.01 645.5 1033.48 647.586 1033.4 647.948C1033.32 648.284 1033.42 648.635 1033.66 648.878L1035.12 650.335C1035.37 650.578 1035.72 650.68 1036.05 650.603C1036.33 650.54 1038.47 650.003 1039.24 649.714L1041.49 650.646C1041.82 651.366 1042.92 653.213 1043.12 653.532C1043.31 653.823 1043.63 654 1043.97 654H1046.03C1046.37 654 1046.69 653.823 1046.88 653.532C1047.03 653.29 1048.16 651.398 1048.51 650.646L1050.76 649.714C1051.5 649.991 1053.59 650.52 1053.95 650.603C1054.28 650.68 1054.63 650.578 1054.88 650.335L1056.34 648.878C1056.58 648.635 1056.68 648.284 1056.6 647.948C1056.54 647.674 1056 645.533 1055.71 644.756L1056.65 642.506C1057.37 642.177 1059.21 641.077 1059.53 640.877C1059.82 640.694 1060 640.374 1060 640.03V637.97C1060 637.626 1059.82 637.306 1059.53 637.123ZM1058 639.467C1057.29 639.89 1056.1 640.572 1055.73 640.726C1055.4 640.781 1055.1 641.003 1054.97 641.33L1053.7 644.401C1053.56 644.729 1053.61 645.093 1053.81 645.367C1053.96 645.739 1054.32 647.059 1054.52 647.862L1053.86 648.522C1053.06 648.318 1051.74 647.962 1051.37 647.808C1051.09 647.612 1050.73 647.561 1050.4 647.697L1047.33 648.968C1047 649.104 1046.78 649.398 1046.73 649.73C1046.57 650.102 1045.89 651.288 1045.47 652H1044.53C1044.11 651.288 1043.43 650.102 1043.27 649.73C1043.22 649.398 1043 649.104 1042.67 648.968L1039.6 647.697C1039.27 647.561 1038.91 647.612 1038.63 647.808C1038.26 647.962 1036.94 648.318 1036.14 648.522L1035.48 647.862C1035.68 647.06 1036.04 645.739 1036.19 645.367C1036.39 645.093 1036.44 644.729 1036.3 644.401L1035.03 641.33C1034.9 641.003 1034.6 640.781 1034.27 640.726C1033.9 640.572 1032.71 639.89 1032 639.467V638.533C1032.71 638.11 1033.9 637.428 1034.27 637.274C1034.6 637.219 1034.9 636.997 1035.03 636.669L1036.3 633.599C1036.44 633.271 1036.39 632.907 1036.19 632.633C1036.04 632.261 1035.68 630.94 1035.48 630.138L1036.14 629.477C1036.94 629.682 1038.26 630.038 1038.63 630.192C1038.91 630.388 1039.27 630.439 1039.6 630.303L1042.67 629.031C1043 628.896 1043.22 628.602 1043.27 628.27C1043.43 627.898 1044.11 626.712 1044.53 626H1045.47C1045.89 626.712 1046.57 627.898 1046.73 628.27C1046.78 628.603 1047 628.896 1047.33 629.032L1050.4 630.303C1050.73 630.439 1051.09 630.388 1051.37 630.192C1051.74 630.038 1053.06 629.682 1053.86 629.478L1054.52 630.138C1054.32 630.941 1053.96 632.261 1053.81 632.633C1053.61 632.907 1053.56 633.271 1053.7 633.599L1054.97 636.67C1055.1 636.997 1055.4 637.219 1055.73 637.274C1056.1 637.428 1057.29 638.11 1058 638.533L1058 639.467Z" fill="white"/>
<path d="M1045 632.461C1041.39 632.461 1038.46 635.394 1038.46 639C1038.46 642.606 1041.39 645.539 1045 645.539C1048.61 645.539 1051.54 642.606 1051.54 639C1051.54 635.394 1048.61 632.461 1045 632.461ZM1045 643.539C1042.5 643.539 1040.46 641.503 1040.46 639C1040.46 636.497 1042.5 634.461 1045 634.461C1047.5 634.461 1049.54 636.497 1049.54 639C1049.54 641.503 1047.5 643.539 1045 643.539Z" fill="white"/>
<line x1="281.5" y1="317.5" x2="998.5" y2="317.5" stroke="#54C6EB" stroke-width="3" stroke-linecap="round"/>
<line x1="281.5" y1="358.5" x2="998.5" y2="358.5" stroke="#54C6EB" stroke-width="3" stroke-linecap="round"/>
<path d="M287.097 335.168L285.763 337.646L283 336.026L287.002 329.07V303.435C287.002 300.068 287.764 297.273 289.288 295.049C290.749 293.016 292.369 292 294.147 292C295.799 292 297.228 293.016 298.435 295.049C299.642 297.082 300.245 299.623 300.245 302.673C300.245 307.247 299.197 312.012 297.101 316.967C295.831 320.017 293.576 324.241 290.336 329.641V348.605C290.463 349.304 290.844 350.384 291.48 351.845C292.051 352.607 292.782 352.989 293.671 352.989C295.64 352.989 297.101 352.131 298.054 350.416L306.248 336.026L309.011 337.646L300.817 351.94C299.229 354.736 296.847 356.133 293.671 356.133C291.575 356.133 289.923 355.18 288.717 353.274C287.7 351.813 287.192 350.257 287.192 348.605L287.097 335.168ZM290.241 303.435V323.542C294.814 315.411 297.101 308.454 297.101 302.673C297.101 300.449 296.72 298.575 295.958 297.051C295.323 295.78 294.719 295.145 294.147 295.145C293.385 295.145 292.591 295.843 291.765 297.241C290.749 298.893 290.241 300.958 290.241 303.435Z" fill="#4C485A"/>
<path d="M333.796 342.792C333.034 346.54 331.383 349.653 328.842 352.131C326.111 354.736 322.966 356.038 319.409 356.038C315.281 356.038 311.946 354.609 309.405 351.75C306.928 348.891 305.689 345.206 305.689 340.696C305.689 336.058 307.119 332.087 309.977 328.784C312.899 325.48 316.424 323.828 320.553 323.828C321.505 323.828 322.458 323.924 323.411 324.114L322.744 327.259C322.109 327.068 321.378 326.973 320.553 326.973C317.25 326.973 314.455 328.339 312.168 331.071C309.945 333.739 308.834 336.947 308.834 340.696C308.834 344.634 309.882 347.684 311.978 349.844C313.883 351.877 316.36 352.893 319.409 352.893C323.093 352.893 326.079 351.273 328.365 348.033C329.699 346.191 330.525 344.031 330.843 341.553C328.937 340.41 327.317 338.599 325.983 336.121C324.65 333.644 323.983 331.357 323.983 329.26C323.983 326.91 324.808 325.734 326.46 325.734C328.238 325.734 329.953 327.068 331.605 329.737C333.447 332.659 334.304 335.963 334.177 339.647C335.638 340.283 337.163 340.6 338.751 340.6C342.879 340.6 345.833 339.076 347.611 336.026L350.374 337.646C347.961 341.712 344.118 343.745 338.846 343.745C336.877 343.745 335.194 343.427 333.796 342.792ZM331.224 338.027C331.16 336.185 330.589 334.184 329.509 332.024C328.429 329.8 327.667 328.847 327.222 329.165C327.032 329.292 326.936 329.578 326.936 330.023C326.936 331.039 327.413 332.437 328.365 334.216C329.318 335.994 330.271 337.265 331.224 338.027H331.224Z" fill="#4C485A"/>
<path d="M360.53 320.493C361.737 322.463 363.516 324.591 365.866 326.878C368.216 329.165 369.74 330.944 370.439 332.214C371.773 334.438 372.44 337.233 372.44 340.6C372.44 344.349 371.487 347.62 369.582 350.416C375.997 347.684 381.142 342.887 385.016 336.026L387.684 337.646C381.904 347.938 373.424 354.005 362.245 355.847C361.102 356.038 360.276 356.133 359.768 356.133C354.496 356.133 350.748 353.37 348.525 347.843L351.193 346.318C351.511 347.017 351.86 347.652 352.241 348.224C353.13 349.685 354.21 350.86 355.481 351.75C356.751 352.575 358.085 352.988 359.482 352.988C359.99 352.988 360.689 352.925 361.578 352.798C363.611 352.226 365.294 351.019 366.628 349.176C368.406 346.762 369.296 343.903 369.296 340.6C369.296 338.059 368.946 336.089 368.248 334.692C367.549 333.294 366.12 331.579 363.96 329.546C361.864 327.449 360.054 325.384 358.529 323.352L350.336 337.646L347.573 336.026L356.624 320.493L360.53 320.493Z" fill="#4C485A"/>
<path d="M437.298 292.381H440.443V348.605C440.57 349.304 440.951 350.384 441.586 351.845C442.158 352.607 442.888 352.989 443.777 352.989C445.746 352.989 447.207 352.131 448.16 350.416L456.354 336.026L459.117 337.646L450.923 351.94C449.335 354.736 446.953 356.133 443.777 356.133C441.681 356.133 439.998 355.18 438.728 353.274C437.711 351.75 437.235 350.193 437.298 348.605C433.805 353.624 429.454 356.133 424.245 356.133C420.561 356.133 417.449 354.767 414.908 352.036C412.431 349.304 411.193 345.937 411.193 341.934C411.193 336.915 412.907 332.595 416.337 328.974C419.577 325.48 423.261 323.733 427.39 323.733C431.709 323.733 435.012 325.321 437.298 328.498V292.381ZM427.294 326.782C423.991 326.782 420.911 328.434 418.052 331.738C415.639 334.533 414.432 337.805 414.432 341.553C414.432 344.92 415.321 347.684 417.1 349.844C418.878 351.94 421.133 352.989 423.864 352.989C427.485 352.989 430.724 351.464 433.583 348.414C436.06 345.746 437.298 342.919 437.298 339.933C437.298 331.166 433.964 326.782 427.294 326.782Z" fill="#4C485A"/>
<path d="M458.816 340.6C458.753 344.221 459.674 347.176 461.579 349.463C463.548 351.75 466.184 352.893 469.487 352.893C472.663 352.893 476.284 351.4 480.349 348.414C483.906 345.873 486.732 343.046 488.828 339.933L491.496 336.026L494.259 337.646C493.624 338.599 492.671 339.965 491.401 341.744C488.987 345.047 485.97 348.065 482.35 350.797C477.649 354.291 473.362 356.038 469.487 356.038C465.295 356.038 461.928 354.577 459.388 351.654C456.847 348.732 455.577 345.143 455.577 340.886C455.577 336.63 456.942 332.723 459.674 329.165C462.405 325.607 465.613 323.828 469.297 323.828C477.046 323.828 480.889 326.782 480.825 332.691C480.825 335.867 479.523 338.281 476.919 339.933C474.696 341.331 471.806 342.03 468.249 342.03C466.915 342.03 463.77 341.553 458.816 340.6ZM459.007 337.551C459.324 337.614 460.944 337.869 463.866 338.313C465.771 338.631 467.391 338.79 468.725 338.79C474.569 338.79 477.554 336.757 477.681 332.691C477.745 330.785 477.205 329.387 476.061 328.498C474.664 327.418 472.409 326.941 469.297 327.068C467.264 327.132 465.168 328.276 463.008 330.499C460.912 332.723 459.578 335.073 459.007 337.551Z" fill="#4C485A"/>
<path d="M498.85 303.34V323.352C503.487 315.029 505.774 308.136 505.71 302.673C505.71 300.386 505.329 298.512 504.567 297.051C503.932 295.78 503.297 295.145 502.661 295.145C501.899 295.145 501.137 295.843 500.375 297.241C499.358 298.893 498.85 300.926 498.85 303.34ZM510.665 327.831C510.665 329.927 511.427 331.801 512.951 333.453C514.539 335.105 516.35 336.503 518.382 337.646C518.001 334.724 516.953 332.151 515.238 329.927C513.65 327.894 512.348 326.878 511.332 326.878C510.887 326.878 510.665 327.195 510.665 327.831ZM534.96 336.026L537.628 337.646C535.405 341.331 531.912 343.173 527.148 343.173C525.877 343.173 524.512 343.046 523.051 342.792C522.416 342.665 521.907 342.538 521.526 342.411C521.018 346.223 519.589 349.431 517.239 352.036C514.889 354.64 512.126 355.943 508.95 355.943C505.393 355.943 502.312 354.386 499.708 351.273C497.167 348.16 495.865 344.349 495.801 339.838L495.706 334.883L494.182 337.646L491.419 336.026L495.706 328.689V303.34C495.706 300.037 496.468 297.273 497.993 295.049C499.327 293.017 500.883 292 502.661 292C504.313 292 505.742 293.017 506.949 295.049C508.156 297.082 508.759 299.592 508.759 302.578C508.759 307.152 507.711 311.885 505.615 316.777C504.408 319.763 502.185 323.955 498.946 329.356V339.838C498.946 343.269 499.898 346.286 501.804 348.891C503.709 351.496 506.091 352.798 508.95 352.798C511.236 352.798 513.237 351.813 514.952 349.844C516.985 347.557 518.16 344.698 518.477 341.267C514.984 339.616 512.411 337.741 510.76 335.645C508.6 332.913 507.521 330.308 507.521 327.831C507.521 325.036 508.664 323.638 510.951 323.638C513.11 323.638 515.27 325.067 517.429 327.926C519.78 331.039 521.177 334.787 521.622 339.171C522.13 339.298 522.86 339.489 523.813 339.743C525.147 339.933 526.322 340.028 527.338 340.028C530.768 340.028 533.309 338.694 534.96 336.026L534.96 336.026Z" fill="#4C485A"/>
<path d="M537.345 340.6C537.282 344.221 538.203 347.176 540.108 349.463C542.077 351.75 544.713 352.893 548.016 352.893C551.192 352.893 554.813 351.4 558.878 348.414C562.435 345.873 565.262 343.046 567.358 339.933L570.025 336.026L572.788 337.646C572.153 338.599 571.201 339.965 569.93 341.744C567.516 345.047 564.499 348.065 560.879 350.797C556.178 354.291 551.891 356.038 548.016 356.038C543.824 356.038 540.458 354.577 537.917 351.654C535.376 348.732 534.106 345.143 534.106 340.886C534.106 336.63 535.472 332.723 538.203 329.165C540.934 325.607 544.142 323.828 547.826 323.828C555.575 323.828 559.418 326.782 559.354 332.691C559.354 335.867 558.052 338.281 555.448 339.933C553.225 341.331 550.335 342.03 546.778 342.03C545.444 342.03 542.3 341.553 537.345 340.6ZM537.536 337.551C537.854 337.614 539.473 337.869 542.395 338.313C544.301 338.631 545.92 338.79 547.254 338.79C553.098 338.79 556.083 336.757 556.21 332.691C556.274 330.785 555.734 329.387 554.591 328.498C553.193 327.418 550.938 326.941 547.826 327.068C545.793 327.132 543.697 328.276 541.538 330.499C539.441 332.723 538.108 335.073 537.536 337.551Z" fill="#4C485A"/>
<path d="M608.631 336.026L611.298 337.646L603.486 351.273C601.707 354.386 599.42 355.943 596.626 355.943C594.593 355.943 592.846 355.18 591.385 353.656C589.924 352.131 589.162 350.193 589.099 347.843L590.814 330.69C590.877 329.8 590.623 329.006 590.051 328.307C589.48 327.609 588.749 327.259 587.86 327.259H583.001C581.095 327.259 579.698 326.687 578.809 325.544C578.682 326.814 577.824 328.816 576.236 331.547L572.711 337.646L569.948 336.026L573.473 330.023C575.506 326.592 576.522 323.828 576.522 321.732H579.762C580.27 323.32 581.35 324.114 583.001 324.114H587.574C589.099 323.86 590.591 324.4 592.052 325.734C593.513 327.45 594.148 329.228 593.958 331.071L592.338 348.129C592.338 349.399 592.751 350.511 593.577 351.464C594.466 352.353 595.482 352.798 596.626 352.798C598.15 352.798 599.547 351.718 600.818 349.558L608.631 336.026Z" fill="#4C485A"/>
<path d="M611.036 340.6C610.973 344.221 611.894 347.176 613.799 349.463C615.768 351.75 618.404 352.893 621.707 352.893C624.883 352.893 628.504 351.4 632.569 348.414C636.126 345.873 638.953 343.046 641.049 339.933L643.716 336.026L646.479 337.646C645.844 338.599 644.891 339.965 643.621 341.744C641.207 345.047 638.19 348.065 634.57 350.797C629.869 354.291 625.582 356.038 621.707 356.038C617.515 356.038 614.149 354.577 611.608 351.654C609.067 348.732 607.797 345.143 607.797 340.886C607.797 336.63 609.163 332.723 611.894 329.165C614.625 325.607 617.833 323.828 621.517 323.828C629.266 323.828 633.109 326.782 633.045 332.691C633.045 335.867 631.743 338.281 629.139 339.933C626.916 341.331 624.026 342.03 620.469 342.03C619.135 342.03 615.991 341.553 611.036 340.6ZM611.227 337.551C611.544 337.614 613.164 337.869 616.086 338.313C617.992 338.631 619.611 338.79 620.945 338.79C626.789 338.79 629.774 336.757 629.901 332.691C629.965 330.785 629.425 329.387 628.281 328.498C626.884 327.418 624.629 326.941 621.517 327.068C619.484 327.132 617.388 328.276 615.228 330.499C613.132 332.723 611.799 335.073 611.227 337.551Z" fill="#4C485A"/>
<path d="M656.597 320.493C657.804 322.463 659.582 324.591 661.932 326.878C664.282 329.165 665.807 330.944 666.506 332.214C667.839 334.438 668.506 337.233 668.506 340.6C668.506 344.349 667.554 347.62 665.648 350.416C672.063 347.684 677.208 342.887 681.083 336.026L683.751 337.646C677.971 347.938 669.491 354.005 658.312 355.847C657.168 356.038 656.343 356.133 655.835 356.133C650.562 356.133 646.815 353.37 644.592 347.843L647.26 346.318C647.577 347.017 647.926 347.652 648.308 348.224C649.197 349.685 650.277 350.86 651.547 351.75C652.817 352.575 654.151 352.988 655.549 352.988C656.057 352.988 656.756 352.925 657.645 352.798C659.677 352.226 661.361 351.019 662.694 349.176C664.473 346.762 665.362 343.903 665.362 340.6C665.362 338.059 665.013 336.089 664.314 334.692C663.615 333.294 662.186 331.579 660.027 329.546C657.931 327.449 656.12 325.384 654.596 323.352L646.402 337.646L643.639 336.026L652.69 320.493L656.597 320.493Z" fill="#4C485A"/>
<path d="M733.365 292.381H736.509V348.605C736.636 349.304 737.017 350.384 737.652 351.845C738.224 352.607 738.954 352.989 739.843 352.989C741.813 352.989 743.273 352.131 744.226 350.416L752.42 336.026L755.183 337.646L746.989 351.94C745.401 354.736 743.019 356.133 739.843 356.133C737.747 356.133 736.064 355.18 734.794 353.274C733.778 351.75 733.301 350.193 733.365 348.605C729.871 353.624 725.52 356.133 720.312 356.133C716.628 356.133 713.515 354.767 710.975 352.036C708.497 349.304 707.259 345.937 707.259 341.934C707.259 336.915 708.974 332.595 712.404 328.974C715.643 325.48 719.327 323.733 723.456 323.733C727.775 323.733 731.078 325.321 733.365 328.498V292.381ZM723.361 326.782C720.058 326.782 716.977 328.434 714.119 331.738C711.705 334.533 710.498 337.805 710.498 341.553C710.498 344.92 711.387 347.684 713.166 349.844C714.944 351.94 717.199 352.989 719.931 352.989C723.551 352.989 726.79 351.464 729.649 348.414C732.126 345.746 733.365 342.919 733.365 339.933C733.365 331.166 730.03 326.782 723.361 326.782Z" fill="#4C485A"/>
<path d="M754.883 340.6C754.819 344.221 755.74 347.176 757.646 349.463C759.615 351.75 762.251 352.893 765.554 352.893C768.729 352.893 772.35 351.4 776.415 348.414C779.972 345.873 782.799 343.046 784.895 339.933L787.563 336.026L790.326 337.646C789.69 338.599 788.738 339.965 787.467 341.744C785.054 345.047 782.037 348.065 778.416 350.797C773.716 354.291 769.428 356.038 765.554 356.038C761.361 356.038 757.995 354.577 755.454 351.654C752.913 348.732 751.643 345.143 751.643 340.886C751.643 336.63 753.009 332.723 755.74 329.165C758.471 325.607 761.679 323.828 765.363 323.828C773.112 323.828 776.955 326.782 776.892 332.691C776.892 335.867 775.589 338.281 772.985 339.933C770.762 341.331 767.872 342.03 764.315 342.03C762.981 342.03 759.837 341.553 754.883 340.6ZM755.073 337.551C755.391 337.614 757.011 337.869 759.932 338.313C761.838 338.631 763.458 338.79 764.792 338.79C770.635 338.79 773.621 336.757 773.748 332.691C773.811 330.785 773.271 329.387 772.128 328.498C770.73 327.418 768.476 326.941 765.363 327.068C763.331 327.132 761.235 328.276 759.075 330.499C756.979 332.723 755.645 335.073 755.073 337.551Z" fill="#4C485A"/>
<path d="M816.369 292.286H825.897V295.526H822.752V352.703H825.992V355.847H816.369V352.703H819.513V295.526H816.369V292.286Z" fill="#4C485A"/>
<path d="M869.34 336.026L872.008 337.646L864.195 351.273C862.417 354.386 860.13 355.943 857.335 355.943C855.303 355.943 853.556 355.18 852.095 353.656C850.634 352.131 849.872 350.193 849.808 347.843L851.523 330.69C851.587 329.8 851.333 329.006 850.761 328.307C850.189 327.609 849.459 327.259 848.57 327.259H843.711C841.805 327.259 840.408 326.687 839.518 325.544C839.391 326.814 838.534 328.816 836.946 331.547L833.421 337.646L830.657 336.026L834.183 330.023C836.215 326.592 837.232 323.828 837.232 321.732H840.471C840.979 323.32 842.059 324.114 843.711 324.114H848.284C849.808 323.86 851.301 324.4 852.762 325.734C854.223 327.45 854.858 329.228 854.667 331.071L853.048 348.129C853.048 349.399 853.461 350.511 854.286 351.464C855.176 352.353 856.192 352.798 857.335 352.798C858.86 352.798 860.257 351.718 861.527 349.558L869.34 336.026Z" fill="#4C485A"/>
<path d="M871.746 340.6C871.682 344.221 872.603 347.176 874.509 349.463C876.478 351.75 879.114 352.893 882.417 352.893C885.593 352.893 889.213 351.4 893.278 348.414C896.835 345.873 899.662 343.046 901.758 339.933L904.426 336.026L907.189 337.646C906.554 338.599 905.601 339.965 904.331 341.744C901.917 345.047 898.9 348.065 895.279 350.797C890.579 354.291 886.291 356.038 882.417 356.038C878.225 356.038 874.858 354.577 872.317 351.654C869.777 348.732 868.506 345.143 868.506 340.886C868.506 336.63 869.872 332.723 872.603 329.165C875.335 325.607 878.542 323.828 882.226 323.828C889.975 323.828 893.818 326.782 893.755 332.691C893.755 335.867 892.453 338.281 889.848 339.933C887.625 341.331 884.735 342.03 881.178 342.03C879.844 342.03 876.7 341.553 871.746 340.6ZM871.936 337.551C872.254 337.614 873.874 337.869 876.796 338.313C878.701 338.631 880.321 338.79 881.655 338.79C887.498 338.79 890.484 336.757 890.611 332.691C890.674 330.785 890.135 329.387 888.991 328.498C887.594 327.418 885.339 326.941 882.226 327.068C880.194 327.132 878.098 328.276 875.938 330.499C873.842 332.723 872.508 335.073 871.936 337.551Z" fill="#4C485A"/>
<path d="M941.03 336.026C941.03 333.294 940.3 331.134 938.839 329.546C937.378 327.958 935.695 327.164 933.789 327.164C930.486 327.164 927.406 329.451 924.547 334.025C923.213 336.121 922.388 338.472 922.07 341.077V355.847H918.926V332.024C919.053 330.499 918.831 329.292 918.259 328.403C917.687 327.45 916.989 326.973 916.163 326.973C914.956 326.973 914.13 327.132 913.686 327.45C913.241 327.704 912.606 328.371 911.78 329.451L907.112 337.646L904.349 336.026L909.303 327.45C911.209 325.035 913.495 323.828 916.163 323.828C918.068 323.828 919.561 324.686 920.641 326.401C921.784 328.053 922.197 330.054 921.88 332.405C925.5 326.751 929.47 323.924 933.789 323.924C936.52 323.924 938.902 324.972 940.935 327.068C943.158 329.356 944.27 332.341 944.27 336.026V348.51C944.27 349.399 944.524 350.289 945.032 351.178C945.667 352.385 946.524 352.989 947.604 352.989C949.51 352.989 950.971 352.099 951.987 350.32L960.181 336.026L962.944 337.646L954.75 351.94C953.162 354.736 950.78 356.133 947.604 356.133C945.508 356.133 943.825 355.18 942.555 353.274C941.538 351.686 941.03 350.098 941.03 348.51V336.026Z" fill="#4C485A"/>
<path d="M962.557 340.6C962.493 344.221 963.414 347.176 965.32 349.463C967.289 351.75 969.925 352.893 973.228 352.893C976.404 352.893 980.024 351.4 984.09 348.414C987.647 345.873 990.473 343.046 992.569 339.933L995.237 336.026L998 337.646C997.365 338.599 996.412 339.965 995.142 341.744C992.728 345.047 989.711 348.065 986.09 350.797C981.39 354.291 977.103 356.038 973.228 356.038C969.036 356.038 965.669 354.577 963.129 351.654C960.588 348.732 959.318 345.143 959.318 340.886C959.318 336.63 960.683 332.723 963.414 329.165C966.146 325.607 969.353 323.828 973.037 323.828C980.787 323.828 984.629 326.782 984.566 332.691C984.566 335.867 983.264 338.281 980.66 339.933C978.436 341.331 975.546 342.03 971.989 342.03C970.655 342.03 967.511 341.553 962.557 340.6ZM962.748 337.551C963.065 337.614 964.685 337.869 967.607 338.313C969.512 338.631 971.132 338.79 972.466 338.79C978.31 338.79 981.295 336.757 981.422 332.691C981.486 330.785 980.946 329.387 979.802 328.498C978.405 327.418 976.15 326.941 973.038 327.068C971.005 327.132 968.909 328.276 966.749 330.499C964.653 332.723 963.319 335.073 962.748 337.551Z" fill="#4C485A"/>
<path d="M12 8.00002C12 3.58174 15.5817 0 20 0H52V720H20C15.5817 720 12 716.418 12 712V8.00002Z" fill="#54C6EB"/>
<path d="M44 16C44 13.7909 45.7909 12 48 12H54C56.2091 12 58 13.7909 58 16V704C58 706.209 56.2091 708 54 708H48C45.7909 708 44 706.209 44 704V16Z" fill="#009BCA"/>
<path d="M21.8945 39.25H5.15625C2.85888 39.25 1 37.389 1 35.0938C1 32.7985 2.85888 30.9375 5.15625 30.9375H21.895C24.1924 30.9375 26.0513 32.7985 26.0513 35.0938C26.0513 37.389 24.1919 39.25 21.8945 39.25Z" fill="#5C546A"/>
<path d="M21.8945 59.5625H5.15625C2.85888 59.5625 1 57.7015 1 55.4062C1 53.111 2.85888 51.25 5.15625 51.25H21.895C24.1924 51.25 26.0513 53.111 26.0513 55.4062C26.0508 57.7015 24.1919 59.5625 21.8945 59.5625Z" fill="#5C546A"/>
<path d="M21.8945 79.875H5.15625C2.85888 79.875 1 78.014 1 75.7188C1 73.4235 2.85888 71.5625 5.15625 71.5625H21.895C24.1924 71.5625 26.0513 73.4235 26.0513 75.7188C26.0513 78.014 24.1919 79.875 21.8945 79.875Z" fill="#5C546A"/>
<path d="M21.8945 100.188H5.15625C2.85888 100.188 1 98.3265 1 96.0312C1 93.736 2.85888 91.875 5.15625 91.875H21.895C24.1924 91.875 26.0513 93.736 26.0513 96.0312C26.0513 98.3265 24.1919 100.188 21.8945 100.188Z" fill="#5C546A"/>
<path d="M21.8945 120.5H5.15625C2.85888 120.5 1 118.639 1 116.344C1 114.048 2.85888 112.188 5.15625 112.188H21.895C24.1924 112.188 26.0513 114.048 26.0513 116.344C26.0513 118.639 24.1919 120.5 21.8945 120.5Z" fill="#5C546A"/>
<path d="M21.8945 140.812H5.15625C2.85888 140.812 1 138.952 1 136.656C1 134.361 2.85888 132.5 5.15625 132.5H21.895C24.1924 132.5 26.0513 134.361 26.0513 136.656C26.0513 138.952 24.1919 140.812 21.8945 140.812Z" fill="#5C546A"/>
<path d="M21.8945 161.125H5.15625C2.85888 161.125 1 159.264 1 156.969C1 154.673 2.85888 152.812 5.15625 152.812H21.895C24.1924 152.812 26.0513 154.673 26.0513 156.969C26.0513 159.264 24.1919 161.125 21.8945 161.125Z" fill="#5C546A"/>
<path d="M21.8945 181.438H5.15625C2.85888 181.438 1 179.577 1 177.281C1 174.986 2.85888 173.125 5.15625 173.125H21.895C24.1924 173.125 26.0513 174.986 26.0513 177.281C26.0513 179.577 24.1919 181.438 21.8945 181.438Z" fill="#5C546A"/>
<path d="M21.8945 201.75H5.15625C2.85888 201.75 1 199.889 1 197.594C1 195.298 2.85888 193.438 5.15625 193.438H21.895C24.1924 193.438 26.0513 195.298 26.0513 197.594C26.0513 199.889 24.1919 201.75 21.8945 201.75Z" fill="#5C546A"/>
<path d="M21.8945 222.062H5.15625C2.85888 222.062 1 220.202 1 217.906C1 215.611 2.85888 213.75 5.15625 213.75H21.895C24.1924 213.75 26.0513 215.611 26.0513 217.906C26.0513 220.202 24.1919 222.062 21.8945 222.062Z" fill="#5C546A"/>
<path d="M21.8945 242.375H5.15625C2.85888 242.375 1 240.514 1 238.219C1 235.923 2.85888 234.062 5.15625 234.062H21.895C24.1924 234.062 26.0513 235.923 26.0513 238.219C26.0513 240.514 24.1919 242.375 21.8945 242.375Z" fill="#5C546A"/>
<path d="M21.8945 262.688H5.15625C2.85888 262.688 1 260.827 1 258.531C1 256.236 2.85888 254.375 5.15625 254.375H21.895C24.1924 254.375 26.0513 256.236 26.0513 258.531C26.0513 260.827 24.1919 262.688 21.8945 262.688Z" fill="#5C546A"/>
<path d="M21.8945 283H5.15625C2.85888 283 1 281.139 1 278.844C1 276.548 2.85888 274.688 5.15625 274.688H21.895C24.1924 274.688 26.0513 276.548 26.0513 278.844C26.0508 281.139 24.1919 283 21.8945 283Z" fill="#5C546A"/>
<path d="M21.8945 303.312H5.15625C2.85888 303.312 1 301.452 1 299.156C1 296.861 2.85888 295 5.15625 295H21.895C24.1924 295 26.0513 296.861 26.0513 299.156C26.0513 301.452 24.1919 303.312 21.8945 303.312Z" fill="#5C546A"/>
<path d="M21.8945 323.625H5.15625C2.85888 323.625 1 321.764 1 319.469C1 317.173 2.85888 315.312 5.15625 315.312H21.895C24.1924 315.312 26.0513 317.173 26.0513 319.469C26.0513 321.764 24.1919 323.625 21.8945 323.625Z" fill="#5C546A"/>
<path d="M21.8945 343.938H5.15625C2.85888 343.938 1 342.077 1 339.781C1 337.486 2.85888 335.625 5.15625 335.625H21.895C24.1924 335.625 26.0513 337.486 26.0513 339.781C26.0513 342.077 24.1919 343.938 21.8945 343.938Z" fill="#5C546A"/>
<path d="M21.8945 364.25H5.15625C2.85888 364.25 1 362.389 1 360.094C1 357.798 2.85888 355.938 5.15625 355.938H21.895C24.1924 355.938 26.0513 357.798 26.0513 360.094C26.0513 362.389 24.1919 364.25 21.8945 364.25Z" fill="#5C546A"/>
<path d="M21.8945 384.562H5.15625C2.85888 384.562 1 382.702 1 380.406C1 378.111 2.85888 376.25 5.15625 376.25H21.895C24.1924 376.25 26.0513 378.111 26.0513 380.406C26.0513 382.702 24.1919 384.562 21.8945 384.562Z" fill="#5C546A"/>
<path d="M21.8945 404.875H5.15625C2.85888 404.875 1 403.014 1 400.719C1 398.423 2.85888 396.562 5.15625 396.562H21.895C24.1924 396.562 26.0513 398.423 26.0513 400.719C26.0513 403.014 24.1919 404.875 21.8945 404.875Z" fill="#5C546A"/>
<path d="M21.8945 425.188H5.15625C2.85888 425.188 1 423.327 1 421.031C1 418.736 2.85888 416.875 5.15625 416.875H21.895C24.1924 416.875 26.0513 418.736 26.0513 421.031C26.0513 423.327 24.1919 425.188 21.8945 425.188Z" fill="#5C546A"/>
<path d="M21.8945 445.5H5.15625C2.85888 445.5 1 443.639 1 441.344C1 439.048 2.85888 437.188 5.15625 437.188H21.895C24.1924 437.188 26.0513 439.048 26.0513 441.344C26.0513 443.639 24.1919 445.5 21.8945 445.5Z" fill="#5C546A"/>
<path d="M21.8945 465.812H5.15625C2.85888 465.812 1 463.952 1 461.656C1 459.361 2.85888 457.5 5.15625 457.5H21.895C24.1924 457.5 26.0513 459.361 26.0513 461.656C26.0513 463.952 24.1919 465.812 21.8945 465.812Z" fill="#5C546A"/>
<path d="M21.8945 486.125H5.15625C2.85888 486.125 1 484.264 1 481.969C1 479.673 2.85888 477.812 5.15625 477.812H21.895C24.1924 477.812 26.0513 479.673 26.0513 481.969C26.0513 484.264 24.1919 486.125 21.8945 486.125Z" fill="#5C546A"/>
<path d="M21.8945 506.438H5.15625C2.85888 506.438 1 504.577 1 502.281C1 499.986 2.85888 498.125 5.15625 498.125H21.895C24.1924 498.125 26.0513 499.986 26.0513 502.281C26.0508 504.577 24.1919 506.438 21.8945 506.438Z" fill="#5C546A"/>
<path d="M21.8945 526.75H5.15625C2.85888 526.75 1 524.889 1 522.594C1 520.298 2.85888 518.438 5.15625 518.438H21.895C24.1924 518.438 26.0513 520.298 26.0513 522.594C26.0513 524.889 24.1919 526.75 21.8945 526.75Z" fill="#5C546A"/>
<path d="M21.8945 547.062H5.15625C2.85888 547.062 1 545.202 1 542.906C1 540.611 2.85888 538.75 5.15625 538.75H21.895C24.1924 538.75 26.0513 540.611 26.0513 542.906C26.0513 545.202 24.1919 547.062 21.8945 547.062Z" fill="#5C546A"/>
<path d="M21.8945 567.375H5.15625C2.85888 567.375 1 565.514 1 563.219C1 560.923 2.85888 559.062 5.15625 559.062H21.895C24.1924 559.062 26.0513 560.923 26.0513 563.219C26.0513 565.514 24.1919 567.375 21.8945 567.375Z" fill="#5C546A"/>
<path d="M21.8945 587.688H5.15625C2.85888 587.688 1 585.827 1 583.531C1 581.236 2.85888 579.375 5.15625 579.375H21.895C24.1924 579.375 26.0513 581.236 26.0513 583.531C26.0513 585.827 24.1919 587.688 21.8945 587.688Z" fill="#5C546A"/>
<path d="M21.8945 608H5.15625C2.85888 608 1 606.139 1 603.844C1 601.548 2.85888 599.688 5.15625 599.688H21.895C24.1924 599.688 26.0513 601.548 26.0513 603.844C26.0513 606.139 24.1919 608 21.8945 608Z" fill="#5C546A"/>
<path d="M21.8945 628.312H5.15625C2.85888 628.312 1 626.452 1 624.156C1 621.861 2.85888 620 5.15625 620H21.895C24.1924 620 26.0513 621.861 26.0513 624.156C26.0513 626.452 24.1919 628.312 21.8945 628.312Z" fill="#5C546A"/>
<path d="M21.8945 648.625H5.15625C2.85888 648.625 1 646.764 1 644.469C1 642.173 2.85888 640.312 5.15625 640.312H21.895C24.1924 640.312 26.0513 642.173 26.0513 644.469C26.0513 646.764 24.1919 648.625 21.8945 648.625Z" fill="#5C546A"/>
<path d="M21.8945 668.938H5.15625C2.85888 668.938 1 667.077 1 664.781C1 662.486 2.85888 660.625 5.15625 660.625H21.895C24.1924 660.625 26.0513 662.486 26.0513 664.781C26.0513 667.077 24.1919 668.938 21.8945 668.938Z" fill="#5C546A"/>
<path d="M21.8945 689.25H5.15625C2.85888 689.25 1 687.389 1 685.094C1 682.798 2.85888 680.938 5.15625 680.938H21.895C24.1924 680.938 26.0513 682.798 26.0513 685.094C26.0513 687.389 24.1919 689.25 21.8945 689.25Z" fill="#5C546A"/>
<defs>
<filter id="filter0_d" x="1013" y="614" width="200.857" height="58" filterUnits="userSpaceOnUse" color-interpolation-filters="sRGB">
<feFlood flood-opacity="0" result="BackgroundImageFix"/>
<feColorMatrix in="SourceAlpha" type="matrix" values="0 0 0 0 0 0 0 0 0 0 0 0 0 0 0 0 0 0 127 0"/>
<feOffset dx="4" dy="4"/>
<feGaussianBlur stdDeviation="2"/>
<feColorMatrix type="matrix" values="0 0 0 0 0.815686 0 0 0 0 0.937255 0 0 0 0 0.976471 0 0 0 1 0"/>
<feBlend mode="normal" in2="BackgroundImageFix" result="effect1_dropShadow"/>
<feBlend mode="normal" in="SourceGraphic" in2="effect1_dropShadow" result="shape"/>
</filter>
</defs>
</svg>
